<?xml version="1.0" encoding="iso-8859-1"?>
<!-- Generator: Adobe Illustrator 18.1.1, SVG Export Plug-In . SVG Version: 6.00 Build 0)  -->
<svg version="1.1" id="Capa_1" xmlns="http://www.w3.org/2000/svg" xmlns:xlink="http://www.w3.org/1999/xlink" x="0px" y="0px"
	 viewBox="0 0 355.438 355.438" style="enable-background:new 0 0 355.438 355.438;" xml:space="preserve">
<path d="M7.999,339.806c-1.001,0-2.02-0.189-3.005-0.589c-4.094-1.661-6.066-6.327-4.405-10.421l22.068-54.39
	c9.5-23.403,26.342-54.327,63.335-55.823c0.313-0.038,0.63-0.057,0.949-0.057h33.005c0.319,0,0.636,0.019,0.949,0.057
	c36.996,1.496,53.838,32.42,63.337,55.822l2.846,7.015l59.311-54.812c3.245-2.999,8.308-2.799,11.305,0.445
	c2.999,3.245,2.8,8.306-0.445,11.305l-67.805,62.663c-1.929,1.783-4.612,2.506-7.173,1.932c-2.563-0.572-4.683-2.366-5.67-4.8
	l-7.194-17.731c-11.43-28.16-24.617-42.187-43.098-45.247l-4.704,22.456l6.293,56.622c0.302,2.72-0.807,5.406-2.94,7.12
	l-14.015,11.26c-1.421,1.142-3.188,1.764-5.011,1.764h-4.974c-1.822,0-3.59-0.622-5.01-1.763l-14.016-11.26
	c-2.134-1.714-3.243-4.4-2.941-7.121l6.295-56.622l-4.705-22.455c-18.48,3.061-31.667,17.088-43.098,45.247l-22.068,54.389
	C14.154,337.921,11.16,339.806,7.999,339.806z M95.379,311.653l8.066,6.48l8.065-6.48l-5.158-46.409h-5.815L95.379,311.653z
	 M99.876,249.244h7.139l3.083-14.717H96.792L99.876,249.244z M347.438,314.278H225.832c-4.418,0-8-3.582-8-8s3.582-8,8-8h113.605
	V67.943H22.341v168.339c0,4.418-3.582,8-8,8s-8-3.582-8-8V59.943c0-4.418,3.582-8,8-8h333.097c4.418,0,8,3.582,8,8v246.335
	C355.438,310.696,351.856,314.278,347.438,314.278z M143.05,276.41c-4.418,0-8-3.582-8-8v-1.089c0-4.418,3.582-8,8-8s8,3.582,8,8
	v1.089C151.05,272.828,147.468,276.41,143.05,276.41z M103.445,203.87c-24.271,0-44.018-19.747-44.018-44.018
	s19.746-44.018,44.018-44.018c2.914,0,5.764,0.285,8.521,0.828c0.161,0.027,0.321,0.06,0.48,0.098
	c19.969,4.166,35.016,21.905,35.016,43.092C147.462,184.124,127.716,203.87,103.445,203.87z M89.161,135.756
	c-8.217,4.89-13.734,13.861-13.734,24.096c0,15.449,12.569,28.018,28.018,28.018s28.018-12.569,28.018-28.018
	c0-11.692-7.199-21.735-17.398-25.927c-3.65,4.823-8.263,8.855-13.586,11.843c-3.854,2.163-8.73,0.792-10.892-3.061
	C88.343,140.492,88.267,137.938,89.161,135.756z M304.059,150.392h-41.058c-4.418,0-8-3.582-8-8s3.582-8,8-8h41.058
	c4.418,0,8,3.582,8,8S308.477,150.392,304.059,150.392z M225.831,150.392h-15.25c-4.418,0-8-3.582-8-8s3.582-8,8-8h15.25
	c4.418,0,8,3.582,8,8S230.249,150.392,225.831,150.392z M304.059,117.016h-82.116c-4.418,0-8-3.582-8-8s3.582-8,8-8h82.116
	c4.418,0,8,3.582,8,8S308.477,117.016,304.059,117.016z M221.949,31.631h-82.12c-4.418,0-8-3.582-8-8s3.582-8,8-8h82.12
	c4.418,0,8,3.582,8,8S226.367,31.631,221.949,31.631z"/>
<g>
</g>
<g>
</g>
<g>
</g>
<g>
</g>
<g>
</g>
<g>
</g>
<g>
</g>
<g>
</g>
<g>
</g>
<g>
</g>
<g>
</g>
<g>
</g>
<g>
</g>
<g>
</g>
<g>
</g>
</svg>
